<?xml version="1.0" encoding="UTF-8" standalone="no"?>
<!-- Created with Inkscape (http://www.inkscape.org/) -->

<svg
   width="630"
   height="500"
   viewBox="0 0 166.6875 132.29167"
   version="1.1"
   id="svg5"
   inkscape:version="1.3.2 (091e20ef0f, 2023-11-25)"
   sodipodi:docname="sub_game.svg"
   xml:space="preserve"
   inkscape:export-filename="../../../../../home/hamcola/Repo/sickle-love/sickle_dodge_love.png"
   inkscape:export-xdpi="96"
   inkscape:export-ydpi="96"
   xmlns:inkscape="http://www.inkscape.org/namespaces/inkscape"
   xmlns:sodipodi="http://sodipodi.sourceforge.net/DTD/sodipodi-0.dtd"
   xmlns="http://www.w3.org/2000/svg"
   xmlns:svg="http://www.w3.org/2000/svg"><sodipodi:namedview
     id="namedview7"
     pagecolor="#505050"
     bordercolor="#eeeeee"
     borderopacity="1"
     inkscape:pageshadow="0"
     inkscape:pageopacity="0"
     inkscape:pagecheckerboard="0"
     inkscape:document-units="mm"
     showgrid="false"
     width="630px"
     units="px"
     inkscape:zoom="1.0519801"
     inkscape:cx="338.88474"
     inkscape:cy="260.9365"
     inkscape:window-width="1432"
     inkscape:window-height="778"
     inkscape:window-x="2061"
     inkscape:window-y="96"
     inkscape:window-maximized="0"
     inkscape:current-layer="layer1"
     inkscape:showpageshadow="2"
     inkscape:deskcolor="#d1d1d1" /><defs
     id="defs2"><rect
       x="176.62415"
       y="264.66295"
       width="411.45396"
       height="226.50267"
       id="rect17631" /><rect
       x="224.94841"
       y="317.02526"
       width="293.68976"
       height="182.07812"
       id="rect10166" /><rect
       x="-67.083249"
       y="36.467916"
       width="468.05108"
       height="193.07732"
       id="rect7938" /><rect
       x="15.694027"
       y="53.47157"
       width="779.86212"
       height="213.87615"
       id="rect2695" /></defs><g
     inkscape:groupmode="layer"
     id="layer5"
     inkscape:label="love" /><g
     inkscape:groupmode="layer"
     id="layer2"
     inkscape:label="words"><text
       xml:space="preserve"
       transform="scale(0.26458333)"
       id="text2693"
       style="font-style:normal;font-variant:normal;font-weight:normal;font-stretch:normal;font-size:40px;line-height:1.25;font-family:'Snowtop Caps';-inkscape-font-specification:'Snowtop Caps';white-space:pre;shape-inside:url(#rect2695);fill:#000000;fill-opacity:1;stroke:none" /></g><g
     inkscape:label="Layer 1"
     inkscape:groupmode="layer"
     id="layer1"
     style="display:inline"><rect
       style="display:inline;fill:#ffffff;fill-opacity:1;stroke-width:0.263343"
       id="rect28"
       width="280.37778"
       height="186.86879"
       x="-70.82489"
       y="-16.359943" /><text
       xml:space="preserve"
       transform="scale(0.26458333)"
       id="text10164"
       style="font-style:normal;font-weight:normal;font-size:40px;line-height:1.25;font-family:sans-serif;white-space:pre;shape-inside:url(#rect10166);fill:#ffffff;fill-opacity:1;stroke:none" /></g><g
     inkscape:groupmode="layer"
     id="layer6"
     inkscape:label="fake_border"
     style="display:inline"><rect
       style="display:inline;fill:#2a337a;fill-opacity:1;stroke-width:0.159658"
       id="rect5023"
       width="156.56694"
       height="123.00153"
       x="4.7872887"
       y="4.4762301" /></g><g
     inkscape:groupmode="layer"
     id="layer4"
     inkscape:label="lines" /><g
     inkscape:groupmode="layer"
     id="layer3"
     inkscape:label="words 2" /><g
     id="g1"
     transform="matrix(4.2136123,0,0,4.2136123,29.892149,40.725354)"><path
       d="M 0,0 C 1.32,0 2.64,0 4,0 4,1.32 4,2.64 4,4 4.969375,4.309375 5.93875,4.61875 6.9375,4.9375 10,6 10,6 11,7 11.1875,9.4375 11.1875,9.4375 11,12 9,14 9,14 5.8125,14.265625 3.9253125,14.257891 3.9253125,14.257891 2,14.25 0.741875,14.2552 -0.51625,14.26031 -1.8125,14.26563 -5,14 -5,14 -7,12 c -2.108208,0.318518 -2.108208,0.318518 -4,1 0,-2.31 0,-4.62 0,-7 0.61875,0.20625 1.2375,0.4125 1.875,0.625 C -8.42375,6.74875 -7.7225,6.8725 -7,7 -6.34,6.34 -5.68,5.68 -5,5 -2.875,4.375 -2.875,4.375 -1,4 -0.67,2.68 -0.34,1.36 0,0 Z"
       fill="#bc7d31"
       transform="translate(12,1)"
       id="path1" /><path
       d="M 0,0 C 1.32,0 2.64,0 4,0 4,1.32 4,2.64 4,4 4.969375,4.309375 5.93875,4.61875 6.9375,4.9375 10,6 10,6 11,7 c 0.04064,1.6661712 0.04272,3.333881 0,5 C 9.02,11.34 7.04,10.68 5,10 5,8.68 5,7.36 5,6 3.0539673,5.4092999 3.0539673,5.4092999 1,5 0.67,5.33 0.34,5.66 0,6 -1.6661711,6.0406383 -3.333881,6.042721 -5,6 -4.360625,5.7525 -3.72125,5.505 -3.0625,5.25 -0.81258459,4.1843757 -0.81258459,4.1843757 -0.25,1.875 -0.1675,1.25625 -0.085,0.6375 0,0 Z"
       fill="#1f1b37"
       transform="translate(12,1)"
       id="path2" /><path
       d="M 0,0 C 2.475,0.495 2.475,0.495 5,1 5,2.65 5,4.3 5,6 3.35,5.67 1.7,5.34 0,5 0,3.35 0,1.7 0,0 Z"
       fill="#216c9a"
       transform="translate(18,7)"
       id="path3" /></g></svg>
